<svg width="20" height="20" viewBox="0 0 20 20" fill="none" xmlns="http://www.w3.org/2000/svg">
<path fill-rule="evenodd" clip-rule="evenodd" d="M9.99996 17.0833C10.7691 17.0833 11.679 16.5572 12.4636 15.2494C12.6931 14.867 12.9 14.4339 13.0775 13.9583H6.92237C7.09986 14.4339 7.30683 14.867 7.53629 15.2494C8.32095 16.5572 9.23079 17.0833 9.99996 17.0833ZM6.54928 12.7083C6.35815 11.8799 6.24996 10.9672 6.24996 10C6.24996 9.03275 6.35815 8.12009 6.54928 7.29167H13.4506C13.6418 8.12009 13.75 9.03275 13.75 10C13.75 10.9672 13.6418 11.8799 13.4506 12.7083H6.54928ZM14.401 13.9583C14.1158 14.8373 13.7385 15.6212 13.2908 16.2741C14.332 15.7268 15.2204 14.928 15.875 13.9583H14.401ZM16.547 12.7083H14.73C14.905 11.8592 15 10.9481 15 10C15 9.05192 14.905 8.1408 14.73 7.29167H16.547C16.8926 8.12602 17.0833 9.04075 17.0833 10C17.0833 10.9592 16.8926 11.874 16.547 12.7083ZM5.26995 12.7083H3.45283C3.10731 11.874 2.91663 10.9592 2.91663 10C2.91663 9.04075 3.10731 8.12602 3.45283 7.29167H5.26995C5.09496 8.1408 4.99996 9.05192 4.99996 10C4.99996 10.9481 5.09496 11.8592 5.26995 12.7083ZM4.12498 13.9583H5.59893C5.88415 14.8373 6.26139 15.6212 6.70914 16.2741C5.66791 15.7268 4.77958 14.928 4.12498 13.9583ZM6.92237 6.04167H13.0775C12.9 5.5661 12.6931 5.133 12.4636 4.75057C11.679 3.4428 10.7691 2.91667 9.99996 2.91667C9.23079 2.91667 8.32095 3.4428 7.53629 4.75057C7.30683 5.133 7.09986 5.5661 6.92237 6.04167ZM14.401 6.04167H15.875C15.2204 5.07202 14.332 4.27315 13.2908 3.72588C13.7385 4.37877 14.1158 5.16267 14.401 6.04167ZM6.70914 3.72588C6.26139 4.37878 5.88414 5.16267 5.59893 6.04167H4.12498C4.77958 5.07202 5.66791 4.27315 6.70914 3.72588ZM9.99996 1.66667C14.6023 1.66667 18.3333 5.39762 18.3333 10C18.3333 14.6023 14.6023 18.3333 9.99996 18.3333C5.39758 18.3333 1.66663 14.6023 1.66663 10C1.66663 5.39762 5.39758 1.66667 9.99996 1.66667Z" fill="#212121"/>
</svg>
