<svg width="119" height="34" viewBox="0 0 119 34" fill="none" xmlns="http://www.w3.org/2000/svg">
<g clip-path="url(#clip0_1_922)">
<path fill-rule="evenodd" clip-rule="evenodd" d="M118.335 19.8618C118.322 19.7283 118.291 19.5972 118.241 19.4725C117.927 18.6548 116.496 19.4172 116.007 19.6221C115.127 19.991 114.121 20.4771 113.147 20.1983C112.878 20.121 112.957 19.8915 113.147 19.7742C113.242 19.7164 115.744 18.3013 116.48 15.165C117.658 10.1477 114.043 8.75214 112.617 8.583C111.167 8.41131 109.549 8.63485 108.868 8.90938C106.936 9.68538 106.432 11.4108 106.298 12.4443C106.116 13.8654 106.094 16.3455 105.919 17.4615C105.803 18.1967 105.256 19.3127 104.178 19.2065C102.098 19.0016 101.143 18.2035 101.209 16.8929C101.255 15.9716 101.242 15.788 101.532 13.7447C101.781 11.9938 101.938 11.5765 101.938 11.1762C101.938 10.0296 100.398 9.79842 99.8825 10.3143C99.4847 10.713 99.3853 11.5264 99.2859 12.8999C99.1924 14.1909 98.9943 15.8704 98.7385 16.8946C98.3408 18.49 98.181 18.6064 97.8181 19.0628C97.0642 20.0114 95.6712 19.7173 94.9913 19.0705C94.5918 18.6897 94.5374 18.3523 94.6147 17.2346C94.6921 16.1169 94.8748 14.1697 95.1315 12.1392C95.355 10.3628 95.2012 10.0959 94.6556 9.59784C94.1482 9.13377 92.2044 9.20261 91.3044 9.20261C89.9114 9.20261 89.9946 9.86557 89.9029 12.1264C89.8629 13.1132 89.817 14.6108 89.7184 15.7701C89.5586 17.657 85.9576 19.0764 84.3019 18.9914C82.586 18.903 82.4211 15.6996 82.3132 14.9542C82.2035 14.2096 82.1602 7.78066 82.3455 7.56222C82.4772 7.40923 83.5098 7.29194 84.687 7.0616C87.2936 6.55164 87.6684 6.21676 87.6718 5.40081C87.6735 5.00049 87.648 4.44038 87.2044 4.28994C86.9443 4.20154 86.2695 4.10125 85.3745 3.99585C82.7934 3.69157 82.4296 3.78507 82.4151 3.45784C82.3905 2.88498 82.4449 1.7826 82.399 1.34828C82.2868 0.280749 81.0357 -0.0779272 79.6266 0.0155667C79.3487 0.0334155 78.9637 0.12351 78.9331 0.495785C78.9025 0.868911 78.905 1.15619 78.86 1.7877C78.7605 3.19096 78.7325 3.3431 78.1885 3.34055C77.7041 3.338 73.6738 2.98187 72.8996 3.23006C72.1244 3.47824 72.1559 4.00605 72.0938 4.27039C72.0318 4.53387 72.1703 6.11732 72.2485 6.80067C72.3259 7.48318 72.4755 8.41216 72.5681 8.55156C72.6616 8.6918 72.9523 9.08787 73.7614 8.98673C76.51 8.6425 78.3432 8.22688 78.7155 8.13423C79.0869 8.04074 79.1294 7.99399 79.1336 8.28892C79.1353 8.45636 79.205 11.8128 79.2169 12.8098C79.2365 14.5148 79.5246 19.4538 74.93 20.2196C73.0186 20.5383 71.2269 19.9816 70.4119 19.0832C69.9495 18.5732 70.1764 18.507 70.3804 18.1755C70.6898 17.6715 73.2718 14.638 71.108 11.4915C69.8322 9.63523 66.7726 9.48819 65.6617 9.97011C64.8008 10.3432 64.1047 11.5 63.9704 12.9109C63.5557 17.2626 66.0459 19.9544 66.1428 20.1201C66.2584 20.319 65.8232 20.9599 64.3019 21.1826C62.2621 21.4818 59.1302 19.0212 59.2109 18.7007C59.2509 18.5477 60.6379 16.2758 60.6711 14.0804C60.6821 13.3333 60.4356 12.35 59.9248 11.3564C59.4132 10.3628 57.8035 8.82949 56.0611 9.16607C51.9612 9.95651 52.4286 14.0073 52.7125 15.1131C53.3023 17.3995 54.6834 19.4172 54.9087 19.821C55.2155 20.3692 46.2336 23.9338 45.886 20.597C45.5401 17.289 50.4509 10.1563 50.0642 7.38883C49.7157 4.89595 48.0397 4.37408 46.5821 4.34858C45.1653 4.32308 44.7913 4.54917 44.312 4.82795C44.0358 4.98859 43.6389 5.30647 43.0881 4.7812C42.7218 4.43188 42.4796 4.18709 42.092 3.87686C41.8957 3.71962 41.5812 3.51989 41.0543 3.44254C40.5273 3.3652 39.8457 3.44254 39.4123 3.62868C38.9788 3.81567 38.6371 4.1412 38.281 4.45143C37.9241 4.76165 37.0206 5.77649 36.1784 5.40251C35.8129 5.24017 34.5746 4.62056 33.6822 4.23384C31.9577 3.48589 29.4709 4.69706 28.5759 6.29155C27.2424 8.6646 24.6119 17.9868 24.2142 19.2158C23.3201 21.9764 25.3446 24.2271 28.077 24.0979C29.2312 24.0426 30.0004 23.6202 30.7296 22.2909C31.1511 21.5234 35.1117 11.1592 35.4058 10.6628C35.62 10.3016 36.3322 9.82647 36.9356 10.1359C37.5408 10.4469 37.6606 11.0946 37.5714 11.704C37.4269 12.6899 34.6341 19.0135 34.527 19.7283C34.3443 20.9454 34.9213 21.622 36.1818 21.6883C37.0453 21.7333 37.9062 21.4223 38.5896 20.1312C38.972 19.4096 43.3754 10.571 43.7655 9.98116C44.1939 9.3335 44.5389 9.12017 44.9741 9.14312C45.3132 9.16012 45.8546 9.24766 45.7186 10.2642C45.586 11.2603 42.0453 17.7463 41.673 19.3339C41.1095 21.7427 42.6513 24.9827 46.781 25.1314C48.8327 25.2062 53.582 24.3104 56.2575 22.2782C57.2289 21.5404 56.9723 21.4767 57.5774 22.0138C58.4485 22.7864 60.0651 23.8743 61.657 23.8743C65.2716 23.8743 67.9114 21.6135 68.0313 21.5319C68.0501 21.519 68.0729 21.5134 68.0956 21.516C68.1183 21.5187 68.1392 21.5294 68.1545 21.5464C68.3738 21.7843 70.615 23.0346 72.1856 23.0864C75.9244 23.2097 78.1384 21.1316 78.9747 20.1533C79.4347 19.6151 79.8637 19.0512 80.2598 18.4645C80.2711 18.4477 80.286 18.4338 80.3035 18.4237C80.3209 18.4136 80.3405 18.4075 80.3606 18.4061C80.3807 18.4046 80.4009 18.4077 80.4197 18.4152C80.4384 18.4226 80.4552 18.4343 80.4689 18.4492C80.6924 18.6956 82.3786 21.7996 85.7281 21.3713C87.5962 21.1324 90.3746 19.5532 90.5692 19.3399C90.5791 19.3287 90.5918 19.3203 90.606 19.3155C90.6202 19.3108 90.6354 19.3099 90.65 19.3129C90.6647 19.3159 90.6783 19.3227 90.6895 19.3327C90.7007 19.3427 90.709 19.3554 90.7137 19.3696C90.8114 19.6399 91.2389 21.163 92.9515 22.3742C94.3555 23.3678 97.0582 23.5667 98.2575 22.9063C99.2519 22.3589 99.6505 22.0087 100.347 21.3118C100.646 21.0117 101.101 20.7083 101.922 20.8825C102.84 21.0772 105.266 21.5073 105.421 21.5812C105.595 21.6636 105.622 21.9807 105.57 22.3122C105.487 22.834 105.29 24.6631 105.089 26.3706C104.888 28.0782 104.244 33.7753 105.769 33.9861C106.69 34.1136 107.49 33.2399 107.702 32.3874C108.232 30.2481 108.329 27.8402 108.677 25.7748C109.094 23.3159 109.259 22.6266 109.408 22.3521C109.532 22.1243 109.532 22.1779 111.25 22.324C112.44 22.426 113.405 22.5918 114.839 22.3912C116.027 22.2246 118.466 21.3237 118.335 19.8618ZM58.9287 14.3354C58.8718 15.1403 58.6653 15.6503 58.2395 16.3914C57.9734 16.8538 57.6981 16.5079 57.5383 16.2792C57.3088 15.9512 56.1359 13.0971 57.0317 12.508C57.2842 12.3423 57.7848 12.2471 58.1468 12.4502C58.5089 12.6525 58.7273 12.9475 58.8268 13.2764C58.9287 13.6104 58.9661 13.7974 58.9287 14.3354ZM70.0558 14.7502C69.9512 15.6766 69.5586 16.2011 69.4141 16.3957C69.1583 16.7391 69.0554 16.8742 68.8106 16.6252C68.6118 16.4229 67.8681 14.9083 67.761 13.9096C67.7024 13.3724 67.8511 12.6049 68.3016 12.4248C68.7758 12.2352 69.256 12.3211 69.5934 12.7622C70.1229 13.4566 70.1306 14.0915 70.0558 14.7502ZM110.436 18.8104C109.877 19.0399 109.634 18.8996 109.667 17.9757C109.673 17.7768 110.57 13.1421 112.284 12.3024C112.771 12.0644 113.263 12.0746 113.605 12.4553C114.251 13.1753 114.081 14.2844 113.595 15.2959C112.891 16.7637 111.203 18.4951 110.436 18.8104Z" fill="#F64060"/>
</g>
<defs>
<clipPath id="clip0_1_922">
<rect width="94.34" height="34" fill="white" transform="translate(24)"/>
</clipPath>
</defs>
</svg>
