<svg width="20" height="20" viewBox="0 0 20 20" fill="none" xmlns="http://www.w3.org/2000/svg">
<path fill-rule="evenodd" clip-rule="evenodd" d="M10 17.0834C13.912 17.0834 17.0833 13.912 17.0833 10C17.0833 6.088 13.912 2.91669 10 2.91669C6.08799 2.91669 2.91667 6.088 2.91667 10C2.91667 13.912 6.08799 17.0834 10 17.0834ZM10 18.3334C14.6023 18.3334 18.3333 14.6024 18.3333 10C18.3333 5.39765 14.6023 1.66669 10 1.66669C5.39763 1.66669 1.66667 5.39765 1.66667 10C1.66667 14.6024 5.39763 18.3334 10 18.3334Z" fill="#707070"/>
<path fill-rule="evenodd" clip-rule="evenodd" d="M15.4419 7.05806C15.686 7.30213 15.686 7.69786 15.4419 7.94194L9.65916 13.7247C8.92691 14.4569 7.73974 14.457 7.00751 13.7247L4.55806 11.2752C4.31398 11.0312 4.31398 10.6355 4.55806 10.3914C4.80213 10.1473 5.19786 10.1473 5.44194 10.3914L7.89139 12.8408C8.13546 13.0849 8.53116 13.0849 8.77525 12.8408L14.5581 7.05806C14.8022 6.81398 15.1978 6.81398 15.4419 7.05806Z" fill="#707070"/>
</svg>
