<svg width="22" height="22" viewBox="0 0 22 22" fill="none" xmlns="http://www.w3.org/2000/svg">
<path fill-rule="evenodd" clip-rule="evenodd" d="M13.5007 3.12962C14.2166 2.41366 15.3774 2.41366 16.0934 3.12962L17.3897 4.42598C18.1057 5.14195 18.1057 6.30275 17.3897 7.01871L16.0934 8.31507L12.2043 4.42598L13.5007 3.12962ZM11.5561 5.07415L15.4451 8.96323L7.93547 16.4729C7.76355 16.6448 7.5304 16.7414 7.28728 16.7414H4.23623C3.98309 16.7414 3.7779 16.5362 3.7779 16.2831V13.2321C3.7779 12.9889 3.87447 12.7558 4.04638 12.5839L11.5561 5.07415ZM4.35419 17.8749C3.97449 17.8749 3.66669 18.1827 3.66669 18.5624C3.66669 18.9422 3.97449 19.2499 4.35419 19.2499H17.6459C18.0255 19.2499 18.3334 18.9422 18.3334 18.5624C18.3334 18.1827 18.0255 17.8749 17.6459 17.8749H4.35419Z" fill="#00798A"/>
</svg>
