<svg width="20" height="20" viewBox="0 0 20 20" fill="none" xmlns="http://www.w3.org/2000/svg">
<path fill-rule="evenodd" clip-rule="evenodd" d="M13.3333 4.99998C13.9503 4.99998 14.4888 4.66481 14.777 4.16665H16.6667C17.1269 4.16665 17.5 4.53975 17.5 4.99998V6.77166C16.0623 7.1417 15 8.44681 15 9.99998C15 11.5531 16.0623 12.8582 17.5 13.2283V15C17.5 15.4602 17.1269 15.8333 16.6667 15.8333H14.777C14.4888 15.3351 13.9503 15 13.3333 15C12.7164 15 12.1778 15.3351 11.8897 15.8333H3.33334C2.87311 15.8333 2.50001 15.4602 2.50001 15V13.2283C3.9377 12.8582 5.00001 11.5531 5.00001 9.99998C5.00001 8.44681 3.9377 7.1417 2.50001 6.77166V4.99998C2.50001 4.53975 2.87311 4.16665 3.33334 4.16665H11.8897C12.1778 4.66481 12.7164 4.99998 13.3333 4.99998ZM15.8333 9.99998C15.8333 8.61923 16.9526 7.49998 18.3333 7.49998V4.99998C18.3333 4.0795 17.5872 3.33331 16.6667 3.33331H14.1667C14.1667 3.79355 13.7936 4.16665 13.3333 4.16665C12.8731 4.16665 12.5 3.79355 12.5 3.33331H3.33334C2.41286 3.33331 1.66667 4.0795 1.66667 4.99998V7.49998C3.04738 7.49998 4.16667 8.61923 4.16667 9.99998C4.16667 11.3807 3.04738 12.5 1.66667 12.5V15C1.66667 15.9205 2.41286 16.6666 3.33334 16.6666H12.5C12.5 16.2064 12.8731 15.8333 13.3333 15.8333C13.7936 15.8333 14.1667 16.2064 14.1667 16.6666H16.6667C17.5872 16.6666 18.3333 15.9205 18.3333 15V12.5C16.9526 12.5 15.8333 11.3807 15.8333 9.99998ZM13.3333 7.49998C13.7936 7.49998 14.1667 7.12689 14.1667 6.66665C14.1667 6.20641 13.7936 5.83331 13.3333 5.83331C12.8731 5.83331 12.5 6.20641 12.5 6.66665C12.5 7.12689 12.8731 7.49998 13.3333 7.49998ZM13.3333 10.8333C13.7936 10.8333 14.1667 10.4602 14.1667 9.99998C14.1667 9.53973 13.7936 9.16665 13.3333 9.16665C12.8731 9.16665 12.5 9.53973 12.5 9.99998C12.5 10.4602 12.8731 10.8333 13.3333 10.8333ZM14.1667 13.3333C14.1667 13.7936 13.7936 14.1666 13.3333 14.1666C12.8731 14.1666 12.5 13.7936 12.5 13.3333C12.5 12.8731 12.8731 12.5 13.3333 12.5C13.7936 12.5 14.1667 12.8731 14.1667 13.3333Z" fill="#707070"/>
</svg>
