<svg width="20" height="20" viewBox="0 0 20 20" fill="none" xmlns="http://www.w3.org/2000/svg">
<path fill-rule="evenodd" clip-rule="evenodd" d="M15.8333 4.58331H4.16667C3.93655 4.58331 3.75 4.76986 3.75 4.99998V15.8333C3.75 16.0634 3.93655 16.25 4.16667 16.25H15.8333C16.0634 16.25 16.25 16.0634 16.25 15.8333V4.99998C16.25 4.76986 16.0634 4.58331 15.8333 4.58331ZM4.16667 3.33331C3.24619 3.33331 2.5 4.0795 2.5 4.99998V15.8333C2.5 16.7538 3.24619 17.5 4.16667 17.5H15.8333C16.7538 17.5 17.5 16.7538 17.5 15.8333V4.99998C17.5 4.0795 16.7538 3.33331 15.8333 3.33331H4.16667Z" fill="#707070"/>
<path d="M5 2.50002C5 2.03979 5.3731 1.66669 5.83333 1.66669C6.29357 1.66669 6.66667 2.03979 6.66667 2.50002V3.33335C6.66667 3.79359 6.29357 4.16669 5.83333 4.16669C5.3731 4.16669 5 3.79359 5 3.33335V2.50002Z" fill="#707070"/>
<path d="M13.3333 2.50002C13.3333 2.03979 13.7064 1.66669 14.1667 1.66669C14.6269 1.66669 15 2.03979 15 2.50002V3.33335C15 3.79359 14.6269 4.16669 14.1667 4.16669C13.7064 4.16669 13.3333 3.79359 13.3333 3.33335V2.50002Z" fill="#707070"/>
<path fill-rule="evenodd" clip-rule="evenodd" d="M15 7.29169C15 7.63686 14.7202 7.91669 14.375 7.91669H5.625C5.27983 7.91669 5 7.63686 5 7.29169C5 6.94651 5.27983 6.66669 5.625 6.66669H14.375C14.7202 6.66669 15 6.94651 15 7.29169Z" fill="#707070"/>
</svg>
