<svg width="20" height="20" viewBox="0 0 20 20" fill="none" xmlns="http://www.w3.org/2000/svg">
<g clip-path="url(#clip0_1_446)">
<g clip-path="url(#clip1_1_446)">
<g clip-path="url(#clip2_1_446)">
<path fill-rule="evenodd" clip-rule="evenodd" d="M6.01892 14.6419C6.01891 14.6419 6.01893 14.642 6.01892 14.6419C6.50678 14.8103 7.01792 14.9185 7.5412 14.9602C7.54119 14.9602 7.54121 14.9602 7.5412 14.9602C7.01792 14.9185 6.50678 14.8103 6.01892 14.6419ZM8.40663 14.968C8.40662 14.968 8.40664 14.968 8.40663 14.968V14.968ZM10.5427 19.7195C8.4633 19.1623 6.9162 17.6102 6.27642 15.7124C6.80764 15.8477 7.35785 15.9225 7.91719 15.9314C8.5116 17.0773 9.56719 17.9792 10.9124 18.3396C13.4528 19.0203 16.0639 17.5127 16.7446 14.9724L18.1003 9.91282C18.1683 9.65882 18.0177 9.39769 17.7636 9.32962L15.1758 8.63621C15.1646 8.12895 15.0989 7.61555 14.9743 7.10327L18.1333 7.94973C19.1495 8.22199 19.7524 9.26645 19.4802 10.2825L18.1245 15.3422C17.2396 18.6446 13.8451 20.6043 10.5427 19.7195ZM9.55271 15.7885C9.31864 16.0226 8.96245 16.0603 8.6891 15.9014C8.98559 15.8737 9.28333 15.8271 9.5809 15.7608C9.57147 15.77 9.56204 15.7792 9.55271 15.7885ZM11.8526 15.1723C11.6996 15.1313 11.5435 15.1058 11.3867 15.0959C11.9355 14.8047 12.4359 14.4469 12.8804 14.0356C13.2683 14.2212 13.6236 14.4719 13.93 14.7783C14.4029 15.2512 14.743 15.8402 14.916 16.4862C15.0181 16.8672 14.792 17.2588 14.411 17.3609C14.0299 17.463 13.6382 17.2369 13.5361 16.8559C13.4279 16.4522 13.2155 16.0841 12.9199 15.7885C12.6244 15.493 12.2562 15.2804 11.8526 15.1723ZM13.7141 13.4032C13.672 13.361 13.6318 13.3169 13.5939 13.2711C13.933 12.8499 14.2233 12.3917 14.4591 11.9061C14.5239 11.9834 14.5732 12.0758 14.6011 12.1796C14.6227 12.2603 14.6652 12.334 14.7243 12.3931C14.7834 12.4522 14.857 12.4947 14.9378 12.5163C15.0185 12.538 15.1036 12.538 15.1842 12.5163C15.265 12.4947 15.3386 12.4522 15.3978 12.3931C15.6767 12.1142 16.1289 12.1142 16.4079 12.3931C16.6868 12.6721 16.6868 13.1243 16.4079 13.4032C16.1715 13.6397 15.877 13.8097 15.554 13.8963C15.2311 13.9827 14.891 13.9827 14.568 13.8963C14.2451 13.8097 13.9506 13.6397 13.7141 13.4032Z" fill="#FFAD43"/>
<path fill-rule="evenodd" clip-rule="evenodd" d="M10.6936 2.15865L2.41419 4.37709C2.16016 4.44516 2.00941 4.70628 2.07747 4.96031L3.4332 10.0199C4.11386 12.5602 6.725 14.0677 9.26531 13.3871C11.8056 12.7064 13.3131 10.0953 12.6325 7.55498L11.2767 2.49537C11.2087 2.24133 10.9476 2.09058 10.6936 2.15865ZM2.04445 2.9972C1.02832 3.26948 0.425308 4.31392 0.697578 5.33005L2.0533 10.3896C2.93818 13.692 6.33264 15.6518 9.63503 14.767C12.9375 13.8821 14.8972 10.4876 14.0124 7.18524L12.6566 2.12563C12.3844 1.10949 11.34 0.506485 10.3238 0.778755L2.04445 2.9972Z" fill="#FFAD43"/>
<path fill-rule="evenodd" clip-rule="evenodd" d="M4.99355 6.64401C4.93314 6.6602 4.87653 6.68813 4.82691 6.72619C4.7773 6.76426 4.73567 6.81173 4.7044 6.86589C4.67314 6.92004 4.65284 6.97982 4.64468 7.04182C4.63652 7.10382 4.64065 7.16682 4.65683 7.22722C4.75894 7.60827 4.5328 7.99995 4.15175 8.10204C3.77071 8.20415 3.37904 7.97801 3.27694 7.59697C3.2122 7.35536 3.19568 7.10336 3.22834 6.85536C3.26098 6.60737 3.34215 6.36822 3.46722 6.1516C3.5923 5.93498 3.7588 5.74511 3.95725 5.59283C4.1557 5.44056 4.38219 5.32886 4.62381 5.26412C4.86542 5.19938 5.11742 5.18286 5.36542 5.21552C5.61342 5.24817 5.85255 5.32934 6.06918 5.45441C6.2858 5.57948 6.47568 5.74598 6.62795 5.94443C6.78022 6.14288 6.89192 6.36938 6.95666 6.61099C7.05875 6.99204 6.83263 7.38371 6.45158 7.48581C6.07054 7.58791 5.67886 7.36178 5.57676 6.98074C5.56057 6.92033 5.53265 6.86371 5.49458 6.81409C5.45652 6.76448 5.40905 6.72285 5.3549 6.69158C5.30074 6.66032 5.24095 6.64002 5.17895 6.63186C5.11695 6.6237 5.05395 6.62783 4.99355 6.64401Z" fill="#FFAD43"/>
<path fill-rule="evenodd" clip-rule="evenodd" d="M9.5933 5.41135C9.4713 5.44404 9.36729 5.52385 9.30414 5.63323C9.24099 5.7426 9.22388 5.87258 9.25656 5.99457C9.35867 6.37561 9.13254 6.76729 8.75149 6.86938C8.37044 6.97149 7.97877 6.74535 7.87668 6.3643C7.74593 5.87635 7.81437 5.35643 8.06696 4.91894C8.31955 4.48145 8.73558 4.16221 9.22355 4.03146C9.71149 3.90071 10.2314 3.96916 10.6689 4.22175C11.1064 4.47433 11.4257 4.89037 11.5563 5.37833C11.6585 5.75938 11.4323 6.15105 11.0513 6.25315C10.6702 6.35525 10.2786 6.12912 10.1765 5.74808C10.1438 5.62609 10.064 5.52208 9.95463 5.45892C9.8453 5.39578 9.7153 5.37867 9.5933 5.41135Z" fill="#FFAD43"/>
<path fill-rule="evenodd" clip-rule="evenodd" d="M4.75596 9.88783C5.0349 9.60888 5.48717 9.60888 5.76611 9.88783C6.12075 10.2424 6.56249 10.4975 7.04693 10.6273C7.53138 10.7571 8.04146 10.7571 8.5259 10.6273C9.01034 10.4975 9.45208 10.2424 9.80669 9.88783C10.1614 9.53317 10.4164 9.09142 10.5462 8.60699C10.6483 8.22594 11.0399 7.99981 11.421 8.10191C11.802 8.20401 12.0282 8.59567 11.9261 8.97672C11.7314 9.70336 11.3488 10.366 10.8169 10.8979C10.2849 11.4299 9.62231 11.8125 8.89564 12.0072C8.16898 12.2019 7.40386 12.2019 6.67719 12.0072C5.95052 11.8125 5.28791 11.4299 4.75596 10.8979C4.47702 10.619 4.47702 10.1668 4.75596 9.88783Z" fill="#FFAD43"/>
</g>
</g>
</g>
<defs>
<clipPath id="clip0_1_446">
<rect width="20" height="20" fill="white"/>
</clipPath>
<clipPath id="clip1_1_446">
<rect width="20" height="20" fill="white"/>
</clipPath>
<clipPath id="clip2_1_446">
<rect width="20" height="20" fill="white"/>
</clipPath>
</defs>
</svg>
