<svg width="20" height="20" viewBox="0 0 20 20" fill="none" xmlns="http://www.w3.org/2000/svg">
<g clip-path="url(#clip0_1_456)">
<g clip-path="url(#clip1_1_456)">
<g clip-path="url(#clip2_1_456)">
<path d="M17.7778 0.833252H2.22226C1.4552 0.833252 0.833374 1.45508 0.833374 2.22214V17.7777C0.833374 18.5448 1.4552 19.1666 2.22226 19.1666H17.7778C18.5449 19.1666 19.1667 18.5448 19.1667 17.7777V2.22214C19.1667 1.45508 18.5449 0.833252 17.7778 0.833252Z" stroke="#008294" stroke-width="1.66667"/>
<path d="M10.0036 11.6666C10.9241 11.6666 11.6702 10.9204 11.6702 9.99992C11.6702 9.07944 10.9241 8.33325 10.0036 8.33325C9.08311 8.33325 8.33691 9.07944 8.33691 9.99992C8.33691 10.9204 9.08311 11.6666 10.0036 11.6666Z" fill="#008294"/>
<path d="M14.433 16.1036C15.3535 16.1036 16.0997 15.3574 16.0997 14.4369C16.0997 13.5165 15.3535 12.7703 14.433 12.7703C13.5125 12.7703 12.7664 13.5165 12.7664 14.4369C12.7664 15.3574 13.5125 16.1036 14.433 16.1036Z" fill="#008294"/>
<path d="M5.56694 7.22982C6.48741 7.22982 7.2336 6.48363 7.2336 5.56315C7.2336 4.64268 6.48741 3.89648 5.56694 3.89648C4.64646 3.89648 3.90027 4.64268 3.90027 5.56315C3.90027 6.48363 4.64646 7.22982 5.56694 7.22982Z" fill="#008294"/>
</g>
</g>
</g>
<defs>
<clipPath id="clip0_1_456">
<rect width="20" height="20" fill="white"/>
</clipPath>
<clipPath id="clip1_1_456">
<rect width="20" height="20" fill="white"/>
</clipPath>
<clipPath id="clip2_1_456">
<rect width="20" height="20" fill="white"/>
</clipPath>
</defs>
</svg>
