<svg width="20" height="20" viewBox="0 0 20 20" fill="none" xmlns="http://www.w3.org/2000/svg">
<g clip-path="url(#clip0_1_434)">
<g clip-path="url(#clip1_1_434)">
<path fill-rule="evenodd" clip-rule="evenodd" d="M11.9844 15.6194C12.7275 14.1332 13.2283 11.9802 13.2283 9.52396C13.2283 6.50406 11.3465 3.73979 9.98836 2.1642C9.96263 2.13434 9.94163 2.122 9.92964 2.11651C9.91666 2.11056 9.90513 2.10851 9.89496 2.10851C9.88479 2.10851 9.87324 2.11056 9.86027 2.11651C9.84829 2.122 9.82728 2.13434 9.80155 2.1642C8.44338 3.73979 6.56163 6.50406 6.56163 9.52396C6.56163 11.9802 7.06245 14.1332 7.80554 15.6194C8.59134 17.191 9.41261 17.6192 9.89496 17.6192C10.3773 17.6192 11.1986 17.191 11.9844 15.6194ZM14.6494 9.1617C15.2184 9.03259 15.7801 8.95502 16.3089 8.91232C16.6912 7.503 16.6328 5.98786 16.4676 4.82806C16.463 4.79566 16.4543 4.78043 16.451 4.77521C16.447 4.76904 16.4434 4.76605 16.4406 4.76431C16.4378 4.76258 16.4335 4.76057 16.4263 4.75961C16.4201 4.7588 16.4026 4.75749 16.3714 4.76722C15.6216 5.00078 14.7482 5.3462 13.9198 5.83471C13.7425 5.38001 13.5414 4.94326 13.3259 4.52771C14.2537 3.9976 15.1912 3.63859 15.9465 3.4033C16.8527 3.121 17.7481 3.687 17.8819 4.62663C18.0414 5.74613 18.1322 7.31029 17.7891 8.87261C17.83 8.87363 17.8704 8.87481 17.9103 8.87613C18.8589 8.90765 19.5183 9.73672 19.3356 10.6681C19.0023 12.3667 18.1744 14.9965 16.1411 16.6138C14.0231 18.2984 11.7042 19.1851 10.0001 19.1118C8.29596 19.1851 5.97717 18.2984 3.85909 16.6138C1.82581 14.9965 0.997859 12.3667 0.664578 10.6681C0.481845 9.73672 1.14128 8.90765 2.08987 8.87613C2.12977 8.87481 2.17021 8.87363 2.21117 8.87261C1.86804 7.31029 1.95884 5.74613 2.11827 4.62663C2.2521 3.687 3.14756 3.121 4.05373 3.4033C4.76491 3.62485 5.63759 3.95609 6.51169 4.43657C6.29399 4.84933 6.08996 5.28357 5.90905 5.73604C5.13255 5.29927 4.32707 4.98473 3.62884 4.76722C3.59759 4.75749 3.5801 4.7588 3.57393 4.75961C3.56664 4.76057 3.56239 4.76258 3.55964 4.76431C3.5569 4.76605 3.55325 4.76904 3.54926 4.77521C3.54588 4.78043 3.53719 4.79566 3.53258 4.82806C3.3674 5.98786 3.30901 7.503 3.6913 8.91232C4.15544 8.9498 4.64493 9.01414 5.1425 9.11663C5.29895 5.7322 7.36353 2.80451 8.71951 1.23147C9.35341 0.496087 10.4365 0.496086 11.0704 1.23147C12.4324 2.81149 14.5093 5.75821 14.6494 9.1617ZM12.8478 16.9961C13.8125 15.469 14.4746 13.2105 14.6245 10.6394C15.7534 10.3351 16.9192 10.2725 17.8629 10.304C17.8956 10.305 17.9116 10.312 17.9173 10.3148C17.9238 10.3181 17.9272 10.3214 17.9292 10.324C17.9312 10.3264 17.9336 10.3305 17.9354 10.3377C17.9369 10.3437 17.9401 10.3609 17.9337 10.393C17.6176 12.0042 16.8738 14.2056 15.2518 15.4958C14.4364 16.1443 13.6165 16.6409 12.8478 16.9961ZM6.85327 16.852C6.1728 16.5106 5.45889 16.0609 4.74836 15.4958C3.12637 14.2056 2.38254 12.0042 2.06643 10.393C2.06012 10.3609 2.06332 10.3437 2.0648 10.3377C2.06653 10.3305 2.069 10.3264 2.07102 10.324C2.07304 10.3214 2.0764 10.3181 2.08296 10.3148C2.08852 10.312 2.1046 10.305 2.1373 10.304C3.02169 10.2745 4.10106 10.3276 5.16226 10.5847C5.30157 13.0987 5.93014 15.3176 6.85327 16.852Z" fill="#31775A"/>
</g>
</g>
<defs>
<clipPath id="clip0_1_434">
<rect width="20" height="20" fill="white"/>
</clipPath>
<clipPath id="clip1_1_434">
<rect width="20" height="20" fill="white"/>
</clipPath>
</defs>
</svg>
