<svg width="20" height="20" viewBox="0 0 20 20" fill="none" xmlns="http://www.w3.org/2000/svg">
<g clip-path="url(#clip0_1_422)">
<g clip-path="url(#clip1_1_422)">
<path fill-rule="evenodd" clip-rule="evenodd" d="M5.98061 2.23328L6.93426 3.25513C6.97745 3.28664 7.01869 3.32258 7.05744 3.36304L8.44046 4.80719L9.58732 2.23327L5.98061 2.23328ZM4.27005 2.39901L5.51786 3.73605L1.51005 12.4477C1.35341 12.7881 1.42177 13.1899 1.6822 13.4593L3.02493 14.8489C3.04534 14.8779 3.06828 14.9057 3.09377 14.932L6.75986 18.712C7.05948 19.021 7.4715 19.1953 7.90189 19.1953H12.7447C13.0852 19.1953 13.3674 18.9458 13.4183 18.6195C13.5174 18.5567 13.6066 18.473 13.6789 18.3684L18.3746 11.5882C18.7625 11.0281 18.4177 10.2775 17.7788 10.1736L16.6856 6.81793C16.4895 6.21618 15.7539 5.99389 15.2574 6.38639L10.8023 9.90832C10.7074 9.98332 10.6333 10.0692 10.5783 10.1615H7.66002C7.62423 10.1615 7.58919 10.1634 7.55495 10.1672L9.21026 6.42501C9.23923 6.35951 9.25996 6.29186 9.27268 6.22343C9.31758 6.16598 9.35653 6.10172 9.38808 6.03088L11.1179 2.14872C11.3858 1.54746 10.9457 0.869626 10.2875 0.869629L4.93467 0.869652C4.13979 0.869655 3.72772 1.81789 4.27005 2.39901ZM11.7652 17.8317L6.94233 11.6286C6.93502 11.6192 6.92794 11.6098 6.92108 11.6002L5.30515 15.2534L7.73874 17.7627C7.78154 17.8068 7.8404 17.8317 7.90189 17.8317H11.7652ZM2.87877 12.7352L6.52326 4.81335L7.81827 6.20098L4.28448 14.19L2.87877 12.7352ZM8.58919 11.5251L12.9104 17.083L16.7558 11.5306H11.366C11.3306 11.5306 11.2959 11.5287 11.262 11.5251H8.58919ZM16.3407 10.1615H12.6809L15.5911 7.86083L16.3407 10.1615Z" fill="#FFAD43"/>
</g>
</g>
<defs>
<clipPath id="clip0_1_422">
<rect width="20" height="20" fill="white"/>
</clipPath>
<clipPath id="clip1_1_422">
<rect width="18.1818" height="20" fill="white" transform="translate(0.909119)"/>
</clipPath>
</defs>
</svg>
