<svg width="20" height="20" viewBox="0 0 20 20" fill="none" xmlns="http://www.w3.org/2000/svg">
<g clip-path="url(#clip0_1_416)">
<g clip-path="url(#clip1_1_416)">
<path fill-rule="evenodd" clip-rule="evenodd" d="M0.677368 17.2592C1.13248 17.4687 1.59594 17.6633 2.06712 17.8421C4.49989 18.7654 7.13836 19.2709 9.89489 19.2709C12.6524 19.2709 15.2918 18.765 17.7253 17.8411C18.1964 17.6622 18.6598 17.4676 19.1149 17.258L18.4025 15.9345L17.4658 14.1943L16.6891 12.7511L10.7482 1.714L9.89646 0.131592L9.04471 1.714L1.38979 15.9356L0.677368 17.2592ZM9.89646 3.29641L15.278 13.2944C13.5871 13.8597 11.7776 14.1659 9.89659 14.1659C8.01549 14.1659 6.20591 13.8596 4.51499 13.2943L9.89646 3.29641ZM9.89659 15.7995C7.73511 15.7995 5.65977 15.4307 3.73007 14.7526L2.78467 16.509C4.999 17.3249 7.3935 17.7709 9.89489 17.7709C12.3973 17.7709 14.7927 17.3246 17.0077 16.508L16.0629 14.7527C14.1332 15.4307 12.058 15.7995 9.89659 15.7995ZM11.4999 12C12.0522 12 12.4999 11.5523 12.4999 11C12.4999 10.4477 12.0522 10 11.4999 10C10.9476 10 10.4999 10.4477 10.4999 11C10.4999 11.5523 10.9476 12 11.4999 12ZM9.18665 12C9.18665 12.5523 8.73893 13 8.18665 13C7.63436 13 7.18665 12.5523 7.18665 12C7.18665 11.4477 7.63436 11 8.18665 11C8.73893 11 9.18665 11.4477 9.18665 12ZM9.82556 9C10.3778 9 10.8256 8.55229 10.8256 8C10.8256 7.44771 10.3778 7 9.82556 7C9.27328 7 8.82556 7.44771 8.82556 8C8.82556 8.55229 9.27328 9 9.82556 9Z" fill="#7A1D47"/>
</g>
</g>
<defs>
<clipPath id="clip0_1_416">
<rect width="20" height="20" fill="white"/>
</clipPath>
<clipPath id="clip1_1_416">
<rect width="19" height="20" fill="white" transform="translate(0.5)"/>
</clipPath>
</defs>
</svg>
