<svg width="20" height="20" viewBox="0 0 20 20" fill="none" xmlns="http://www.w3.org/2000/svg">
<g clip-path="url(#clip0_1_440)">
<g clip-path="url(#clip1_1_440)">
<g clip-path="url(#clip2_1_440)">
<path fill-rule="evenodd" clip-rule="evenodd" d="M15.436 9.49204H16.6463C17.8827 9.49204 18.8529 10.5524 18.7434 11.784L18.0905 19.117C18.0542 19.5242 17.7131 19.8364 17.3041 19.8364C16.8405 19.8364 16.4766 19.4388 16.5178 18.977L17.1706 11.644C17.198 11.3361 16.9555 11.071 16.6463 11.071H2.301C1.99189 11.071 1.74935 11.3361 1.77676 11.644L2.42957 18.977C2.47067 19.4388 2.10685 19.8364 1.6432 19.8364C1.23432 19.8364 0.893094 19.5242 0.856837 19.117L0.204027 11.784C0.0943923 10.5524 1.0646 9.49204 2.301 9.49204H3.40922C3.30382 8.74035 3.25041 8.0315 3.25041 7.40721C3.25041 6.99152 3.27409 6.58401 3.32104 6.18752H0.789474C0.353459 6.18752 0 5.83407 0 5.39805C0 4.96204 0.353459 4.60857 0.789474 4.60857H3.42105C3.49706 4.60857 3.57057 4.61932 3.64013 4.63937C4.43196 2.02267 6.41295 0.182373 9.42262 0.182373C12.4453 0.182373 14.4303 2.0385 15.2153 4.67311C15.3113 4.63159 15.4172 4.60857 15.5284 4.60857H18.16C18.596 4.60857 18.9495 4.96204 18.9495 5.39805C18.9495 5.83407 18.596 6.18752 18.16 6.18752H15.5284L15.5242 6.18751C15.5712 6.58401 15.5948 6.99151 15.5948 7.40721C15.5948 8.0315 15.5415 8.74035 15.436 9.49204ZM13.8403 9.49204C13.9567 8.73098 14.0159 8.01771 14.0159 7.40721C14.0159 5.68219 13.5427 4.2497 12.7714 3.28388C12.0309 2.35693 10.9445 1.76132 9.42262 1.76132C7.90072 1.76132 6.81429 2.35693 6.07393 3.28388C5.30251 4.2497 4.82936 5.68219 4.82936 7.40721C4.82936 8.01771 4.88847 8.73098 5.00497 9.49204H13.8403ZM8.27868 6.1642C8.27868 6.45488 8.04304 6.69052 7.75237 6.69052C7.46168 6.69052 7.22605 6.45488 7.22605 6.1642C7.22605 5.87353 7.46168 5.63789 7.75237 5.63789C8.04304 5.63789 8.27868 5.87353 8.27868 6.1642ZM9.33132 6.1642C9.33132 7.03624 8.62439 7.74315 7.75237 7.74315C6.88034 7.74315 6.17342 7.03624 6.17342 6.1642C6.17342 5.29217 6.88034 4.58526 7.75237 4.58526C8.62439 4.58526 9.33132 5.29217 9.33132 6.1642ZM11.1971 6.69052C11.4877 6.69052 11.7234 6.45488 11.7234 6.1642C11.7234 5.87353 11.4877 5.63789 11.1971 5.63789C10.9064 5.63789 10.6707 5.87353 10.6707 6.1642C10.6707 6.45488 10.9064 6.69052 11.1971 6.69052ZM11.1971 7.74315C12.0691 7.74315 12.776 7.03624 12.776 6.1642C12.776 5.29217 12.0691 4.58526 11.1971 4.58526C10.325 4.58526 9.61812 5.29217 9.61812 6.1642C9.61812 7.03624 10.325 7.74315 11.1971 7.74315ZM5.38292 15.2631V14.2104H8.54081V15.2631H5.38292ZM3.80397 13.1578C3.80397 12.8672 4.03961 12.6315 4.33028 12.6315H9.59344C9.88412 12.6315 10.1198 12.8672 10.1198 13.1578V16.3157C10.1198 16.6063 9.88412 16.842 9.59344 16.842H4.33028C4.03961 16.842 3.80397 16.6063 3.80397 16.3157V13.1578ZM10.9328 13.5985C10.9328 13.1625 11.2863 12.8091 11.7223 12.8091H14.3539C14.7899 12.8091 15.1434 13.1625 15.1434 13.5985C15.1434 14.0345 14.7899 14.388 14.3539 14.388H11.7223C11.2863 14.388 10.9328 14.0345 10.9328 13.5985ZM11.7223 14.9596C11.2863 14.9596 10.9328 15.3131 10.9328 15.7491C10.9328 16.1851 11.2863 16.5385 11.7223 16.5385H14.3539C14.7899 16.5385 15.1434 16.1851 15.1434 15.7491C15.1434 15.3131 14.7899 14.9596 14.3539 14.9596H11.7223Z" fill="#7A1D47"/>
</g>
</g>
</g>
<defs>
<clipPath id="clip0_1_440">
<rect width="20" height="20" fill="white"/>
</clipPath>
<clipPath id="clip1_1_440">
<rect width="20" height="20" fill="white"/>
</clipPath>
<clipPath id="clip2_1_440">
<rect width="20" height="20" fill="white"/>
</clipPath>
</defs>
</svg>
