<svg width="20" height="20" viewBox="0 0 20 20" fill="none" xmlns="http://www.w3.org/2000/svg">
<g clip-path="url(#clip0_1_410)">
<g clip-path="url(#clip1_1_410)">
<g clip-path="url(#clip2_1_410)">
<path fill-rule="evenodd" clip-rule="evenodd" d="M5.68406 2.688L3.75283 5.08464C4.56044 5.5057 4.90778 6.58861 4.32197 7.42448L2.78001 9.62467H8.29259L6.75063 7.42448C6.1141 6.51623 6.57932 5.31631 7.53961 4.99074L5.68406 2.688ZM9.39789 4.90621L6.07339 0.780515C5.87325 0.532146 5.49486 0.532146 5.29473 0.780515L1.97022 4.90621L1.9611 4.91753L1.80655 5.10933L1.41722 5.59249C1.23975 5.81273 1.28733 6.10531 1.4656 6.27295C1.50849 6.31329 1.55894 6.34639 1.61565 6.36951C1.67328 6.39302 1.73738 6.40621 1.80655 6.40621H2.42705H2.67337H2.68791H2.86902H3.01171C3.09264 6.40621 3.14005 6.49733 3.0936 6.5636L3.01171 6.68045L2.29062 7.70936L2.15266 7.90621L0.948313 9.62467L0.945773 9.62829L0.858049 9.75346L0.448592 10.3377C0.216362 10.6691 0.45341 11.1246 0.858049 11.1246H1.57149H1.72434H1.72877H4.80688V13.8344C4.42667 13.7964 4.04099 13.7769 3.65077 13.7769C2.94793 13.7769 2.25983 13.84 1.59182 13.9609C1.16261 14.0385 0.919485 14.4838 1.05526 14.8983C1.17784 15.2725 1.56745 15.4862 1.95562 15.4199C2.50607 15.3259 3.07235 15.2769 3.65077 15.2769C6.8491 15.2769 9.69809 16.7796 11.5277 19.1217C11.736 19.3883 12.0861 19.5086 12.4076 19.4033C12.8824 19.2478 13.0832 18.6853 12.7795 18.2886C12.0984 17.3989 11.2901 16.6117 10.3819 15.954C12.2029 14.0281 14.782 12.8264 17.6418 12.8264C18.1301 12.8264 18.6102 12.8614 19.0798 12.9291C19.5527 12.9973 20.0004 12.6464 20.0004 12.1686C20.0004 11.8191 19.7556 11.515 19.4102 11.4617C18.8338 11.3726 18.2432 11.3264 17.6418 11.3264C17.2584 11.3264 16.8794 11.3452 16.5056 11.3819V9.21963H18.188H18.1924H18.3453H19.0587C19.4633 9.21963 19.7004 8.76404 19.4682 8.43267L19.0587 7.84843L18.971 7.72326L18.9684 7.71963L18.3623 6.85478L18.2244 6.65793L17.5033 5.62902L17.4214 5.51217C17.3749 5.4459 17.4223 5.35478 17.5033 5.35478H17.6273H17.6418H17.646H17.8882H18.5087C18.6631 5.35478 18.7922 5.28901 18.8807 5.18958C18.9092 5.15753 18.9335 5.12198 18.953 5.08401C19.0378 4.91935 19.0334 4.70914 18.898 4.54106L18.5087 4.0579L18.3541 3.8661L18.345 3.85478L15.911 0.834226C15.7109 0.585857 15.3325 0.585857 15.1323 0.834226L12.6984 3.85478L12.6892 3.8661L12.5347 4.0579L12.1454 4.54106C12.0767 4.62622 12.0418 4.72219 12.035 4.81758C12.0342 4.8288 12.0338 4.84001 12.0338 4.85119C12.0331 5.11014 12.2369 5.35478 12.5347 5.35478H13.1552H13.298C13.3317 5.35478 13.3597 5.37062 13.3774 5.3939L13.3807 5.3986C13.4025 5.43087 13.4057 5.47535 13.3799 5.51217L13.298 5.62902L12.5769 6.65793L12.5347 6.71816L12.4404 6.85272L11.8328 7.71963L11.8303 7.72326L11.7426 7.84843L11.3331 8.43267C11.1009 8.76404 11.3379 9.21963 11.7426 9.21963H12.456H12.6089H12.6133H15.0056V11.6302C12.7349 12.1633 10.7238 13.3699 9.19455 15.0278C9.15835 15.067 9.12761 15.1079 9.10203 15.1499C8.23174 14.68 7.29393 14.3191 6.30688 14.0855V11.1246H9.34384H9.34827H9.50111H10.2146C10.6192 11.1246 10.8562 10.6691 10.624 10.3377L10.2146 9.75346L10.1268 9.62829L10.1243 9.62467L8.91994 7.90621L8.78199 7.70936L8.06089 6.68045L7.979 6.5636C7.93256 6.49733 7.97997 6.40621 8.06089 6.40621H8.20358H8.68021H8.69475H8.94106H9.46002H9.56156C9.6064 6.40621 9.6491 6.40067 9.68929 6.39037C10.0257 6.30415 10.1863 5.88467 9.95089 5.59249L9.56156 5.10933L9.40701 4.91753L9.39789 4.90621ZM14.3259 4.22571L15.5217 2.74171L16.6266 4.11286C15.9174 4.57888 15.6411 5.58559 16.193 6.37305L17.1367 7.71963H13.6645L14.6083 6.37305C15.119 5.64426 14.9204 4.72768 14.3259 4.22571Z" fill="#31775A"/>
</g>
</g>
</g>
<defs>
<clipPath id="clip0_1_410">
<rect width="20" height="20" fill="white"/>
</clipPath>
<clipPath id="clip1_1_410">
<rect width="20" height="20" fill="white"/>
</clipPath>
<clipPath id="clip2_1_410">
<rect width="20" height="20" fill="white"/>
</clipPath>
</defs>
</svg>
