<svg width="41" height="41" viewBox="0 0 41 41" fill="none" xmlns="http://www.w3.org/2000/svg">
<g clip-path="url(#clip0_1_479)">
<g clip-path="url(#clip1_1_479)">
<g clip-path="url(#clip2_1_479)">
<path d="M16.2698 0.650635C24.896 0.650635 31.8888 7.64352 31.8888 16.2697C31.8888 19.642 30.8201 22.7646 29.0029 25.3175L40.7766 37.0951L37.0952 40.7765L25.3176 29.0028C22.7648 30.82 19.6421 31.8887 16.2698 31.8887C7.64364 31.8887 0.650757 24.8959 0.650757 16.2697C0.650757 7.64352 7.64364 0.650635 16.2698 0.650635ZM16.2698 5.85698C10.519 5.85698 5.85711 10.5189 5.85711 16.2697C5.85711 22.0205 10.519 26.6824 16.2698 26.6824C22.0206 26.6824 26.6825 22.0205 26.6825 16.2697C26.6825 10.5189 22.0206 5.85698 16.2698 5.85698Z" fill="#008294"/>
</g>
</g>
</g>
<defs>
<clipPath id="clip0_1_479">
<rect width="41" height="41" fill="white"/>
</clipPath>
<clipPath id="clip1_1_479">
<rect width="41" height="41" fill="white"/>
</clipPath>
<clipPath id="clip2_1_479">
<rect width="41" height="41" fill="white"/>
</clipPath>
</defs>
</svg>
